<svg width="12" height="12" viewBox="0 0 12 12" fill="none" xmlns="http://www.w3.org/2000/svg">
<path d="M0.75 8.25L2.58079 5.92112C3.09993 5.26074 4.09302 5.23914 4.64039 5.87631L6.25 7.75M4.86003 6.13199C5.55147 5.25244 6.5149 4.00637 6.57757 3.92529L6.58422 3.91678C7.1043 3.26065 8.09422 3.24054 8.64039 3.87631L10.25 5.75M2.08333 0.75H9.08333C9.81971 0.75 10.4167 1.34695 10.4167 2.08333V9.08333C10.4167 9.81971 9.81971 10.4167 9.08333 10.4167H2.08333C1.34695 10.4167 0.75 9.81971 0.75 9.08333V2.08333C0.75 1.34695 1.34695 0.75 2.08333 0.75Z" stroke="#667085" stroke-width="1.5" stroke-linecap="round" stroke-linejoin="round"/>
</svg>
