<svg width="10" height="11" viewBox="0 0 10 11" fill="none" xmlns="http://www.w3.org/2000/svg">
<path d="M3.58333 1.08333H9.25M3.58333 5.08333H9.25M3.58333 9.08333H9.25M1.41667 1.08333C1.41667 1.26743 1.26743 1.41667 1.08333 1.41667C0.899238 1.41667 0.75 1.26743 0.75 1.08333C0.75 0.899238 0.899238 0.75 1.08333 0.75C1.26743 0.75 1.41667 0.899238 1.41667 1.08333ZM1.41667 5.08333C1.41667 5.26743 1.26743 5.41667 1.08333 5.41667C0.899238 5.41667 0.75 5.26743 0.75 5.08333C0.75 4.89924 0.899238 4.75 1.08333 4.75C1.26743 4.75 1.41667 4.89924 1.41667 5.08333ZM1.41667 9.08333C1.41667 9.26743 1.26743 9.41667 1.08333 9.41667C0.899238 9.41667 0.75 9.26743 0.75 9.08333C0.75 8.89924 0.899238 8.75 1.08333 8.75C1.26743 8.75 1.41667 8.89924 1.41667 9.08333Z" stroke="#667085" stroke-width="1.5" stroke-linecap="round" stroke-linejoin="round"/>
</svg>
