<svg width="12" height="12" viewBox="0 0 12 12" fill="none" xmlns="http://www.w3.org/2000/svg">
<path d="M0.75 1.75L1.75 0.75V4.41667M1.75 4.41667H0.75M1.75 4.41667H2.41667M6.41666 7.08333H5.35416C4.867 7.08333 4.59548 6.54059 4.85386 6.15491C4.88569 6.1074 4.93075 6.07075 4.97836 6.03906L6.17827 5.24063C6.22589 5.20895 6.27079 5.17215 6.3033 5.12509C6.60022 4.69522 6.29752 4.08333 5.75172 4.08333H4.75M8.75 7.41667H9.71426C10.5372 7.41667 10.6832 8.67505 9.9234 8.8871C9.88659 8.89737 9.84803 8.90147 9.80984 8.90281L9.41667 8.91667L9.80984 8.93052C9.84803 8.93187 9.88659 8.93597 9.9234 8.94624C10.6832 9.15829 10.5372 10.4167 9.71426 10.4167H8.75" stroke="#667085" stroke-width="1.5" stroke-linecap="round" stroke-linejoin="round"/>
</svg>
